<svg xmlns="http://www.w3.org/2000/svg" xmlns:serif="http://www.serif.com/" fill-rule="evenodd" clip-rule="evenodd" version="1" viewBox="0 0 58 66">
  <g>
    <clipPath id="a">
      <path d="M0 0h16v16H0z"/>
    </clipPath>
    <g clip-path="url(#a)">
      <path fill-rule="nonzero" stroke="#11727a" d="M6 3h4M5 4h1m4 0h1M4 5h1M3 6h1M3 7h1M2 8h1M2 9h1m-1 1h1m-1 1h1"/>
      <path fill-rule="nonzero" stroke="#fff" d="M6 4h3M5 5h1M4 6h1M4 7h1m1 0h1m1 0h1M3 8h1m1 0h1M3 9h1m-1 1h2"/>
      <path fill-rule="nonzero" stroke="#d5fff6" d="M9 4h1M9 5h1M8 6h1M7 7h1m1 0h1M5 9h1m-3 2h1"/>
      <path fill-rule="nonzero" stroke="#4aedd9" d="M6 5h2M5 6h1m4 0h1M5 7h1m4 0h2M4 8h1m1 0h2M4 9h1m1 0h1m2 1h1m-6 1h2m-2 1h1m1 2h2"/>
      <path fill-rule="nonzero" stroke="#a1fbe8" d="M8 5h1M6 6h2m1 0h1M8 8h2M7 9h3m-4 1h3m2 3h1m-4 1h2"/>
      <path fill-rule="nonzero" stroke="#20c5b5" d="M10 5h1m0 1h1m-1 2h1m-1 1h1m-7 1h1m4 1h2m-6 1h4m1 0h1m-6 1h4m0 1h1"/>
      <path fill-rule="nonzero" stroke="#145e53" d="M11 5h1m0 1h1m-1 1h1m0 1h1m-1 1h1m-1 1h1m-1 1h1M3 12h1m8 0h1M3 13h1m8 0h1m-9 1h1m6 0h1m-7 1h6"/>
      <path fill-rule="nonzero" stroke="#1aaaa7" d="M10 8h1m1 0h1m-1 1h1m-2 1h2m-7 1h4m-5 1h1m4 0h1m-6 1h1m4 0h1"/>
      <path fill-rule="nonzero" stroke="#1c919a" d="M10 9h1m-1 1h1m1 1h1m-8 3h1"/>
      <path fill-rule="nonzero" stroke="#2ce0d8" d="M4 13h1"/>
    </g>
  </g>
  <g transform="translate(21)" serif:id="diamond">
    <clipPath id="b">
      <path d="M0 0h16v16H0z"/>
    </clipPath>
    <g clip-path="url(#b)">
      <path fill-rule="nonzero" stroke="#11727a" d="M6 3h4M5 4h1m4 0h1M4 5h1M3 6h1M3 7h1M2 8h1M2 9h1m-1 1h1m-1 1h1"/>
      <path fill-rule="nonzero" stroke="#fff" d="M6 4h3M5 5h1M4 6h1M4 7h1m1 0h1m1 0h1M3 8h1m1 0h1M3 9h1m-1 1h2"/>
      <path fill-rule="nonzero" stroke="#d5fff6" d="M9 4h1M9 5h1M8 6h1M7 7h1m1 0h1M5 9h1m-3 2h1"/>
      <path fill-rule="nonzero" stroke="#4aedd9" d="M6 5h2M5 6h1m4 0h1M5 7h1m4 0h2M4 8h1m1 0h2M4 9h1m1 0h1m2 1h1m-6 1h2m-2 1h1m1 2h2"/>
      <path fill-rule="nonzero" stroke="#a1fbe8" d="M8 5h1M6 6h2m1 0h1M8 8h2M7 9h3m-4 1h3m2 3h1m-4 1h2"/>
      <path fill-rule="nonzero" stroke="#20c5b5" d="M10 5h1m0 1h1m-1 2h1m-1 1h1m-7 1h1m4 1h2m-6 1h4m1 0h1m-6 1h4m0 1h1"/>
      <path fill-rule="nonzero" stroke="#145e53" d="M11 5h1m0 1h1m-1 1h1m0 1h1m-1 1h1m-1 1h1m-1 1h1M3 12h1m8 0h1M3 13h1m8 0h1m-9 1h1m6 0h1m-7 1h6"/>
      <path fill-rule="nonzero" stroke="#1aaaa7" d="M10 8h1m1 0h1m-1 1h1m-2 1h2m-7 1h4m-5 1h1m4 0h1m-6 1h1m4 0h1"/>
      <path fill-rule="nonzero" stroke="#1c919a" d="M10 9h1m-1 1h1m1 1h1m-8 3h1"/>
      <path fill-rule="nonzero" stroke="#2ce0d8" d="M4 13h1"/>
    </g>
  </g>
  <g transform="translate(42)" serif:id="diamond">
    <clipPath id="c">
      <path d="M0 0h16v16H0z"/>
    </clipPath>
    <g clip-path="url(#c)">
      <path fill-rule="nonzero" stroke="#11727a" d="M6 3h4M5 4h1m4 0h1M4 5h1M3 6h1M3 7h1M2 8h1M2 9h1m-1 1h1m-1 1h1"/>
      <path fill-rule="nonzero" stroke="#fff" d="M6 4h3M5 5h1M4 6h1M4 7h1m1 0h1m1 0h1M3 8h1m1 0h1M3 9h1m-1 1h2"/>
      <path fill-rule="nonzero" stroke="#d5fff6" d="M9 4h1M9 5h1M8 6h1M7 7h1m1 0h1M5 9h1m-3 2h1"/>
      <path fill-rule="nonzero" stroke="#4aedd9" d="M6 5h2M5 6h1m4 0h1M5 7h1m4 0h2M4 8h1m1 0h2M4 9h1m1 0h1m2 1h1m-6 1h2m-2 1h1m1 2h2"/>
      <path fill-rule="nonzero" stroke="#a1fbe8" d="M8 5h1M6 6h2m1 0h1M8 8h2M7 9h3m-4 1h3m2 3h1m-4 1h2"/>
      <path fill-rule="nonzero" stroke="#20c5b5" d="M10 5h1m0 1h1m-1 2h1m-1 1h1m-7 1h1m4 1h2m-6 1h4m1 0h1m-6 1h4m0 1h1"/>
      <path fill-rule="nonzero" stroke="#145e53" d="M11 5h1m0 1h1m-1 1h1m0 1h1m-1 1h1m-1 1h1m-1 1h1M3 12h1m8 0h1M3 13h1m8 0h1m-9 1h1m6 0h1m-7 1h6"/>
      <path fill-rule="nonzero" stroke="#1aaaa7" d="M10 8h1m1 0h1m-1 1h1m-2 1h2m-7 1h4m-5 1h1m4 0h1m-6 1h1m4 0h1"/>
      <path fill-rule="nonzero" stroke="#1c919a" d="M10 9h1m-1 1h1m1 1h1m-8 3h1"/>
      <path fill-rule="nonzero" stroke="#2ce0d8" d="M4 13h1"/>
    </g>
  </g>
  <g transform="translate(21 50)">
    <clipPath id="d">
      <path d="M0 0h16v16H0z"/>
    </clipPath>
    <g clip-path="url(#d)">
      <path fill-rule="nonzero" stroke="#493615" d="M13 3h1m-2 1h1m-2 1h1m-2 1h1M9 7h1M8 8h1M7 9h1m-2 1h1m-2 1h1m-2 1h1m-2 1h1m-2 1h1"/>
      <path fill-rule="nonzero" stroke="#281e0b" d="M14 3h1m-1 1h1m-2 1h1m-2 1h1m-2 1h1m-2 1h1M9 9h1m-2 1h1m-2 1h1m-2 1h1m-2 1h1m-2 1h1m-3 1h2"/>
      <path fill-rule="nonzero" stroke="#896727" d="M13 4h1m-2 1h1m-3 2h1M8 9h1m-3 2h1m-3 2h1m-2 1h1"/>
      <path fill-rule="nonzero" stroke="#684e1e" d="M11 6h1M9 8h1m-3 2h1m-3 2h1"/>
    </g>
  </g>
  <g transform="translate(21 24)" serif:id="stick">
    <clipPath id="e">
      <path d="M0 0h16v16H0z"/>
    </clipPath>
    <g clip-path="url(#e)">
      <path fill-rule="nonzero" stroke="#493615" d="M13 3h1m-2 1h1m-2 1h1m-2 1h1M9 7h1M8 8h1M7 9h1m-2 1h1m-2 1h1m-2 1h1m-2 1h1m-2 1h1"/>
      <path fill-rule="nonzero" stroke="#281e0b" d="M14 3h1m-1 1h1m-2 1h1m-2 1h1m-2 1h1m-2 1h1M9 9h1m-2 1h1m-2 1h1m-2 1h1m-2 1h1m-2 1h1m-3 1h2"/>
      <path fill-rule="nonzero" stroke="#896727" d="M13 4h1m-2 1h1m-3 2h1M8 9h1m-3 2h1m-3 2h1m-2 1h1"/>
      <path fill-rule="nonzero" stroke="#684e1e" d="M11 6h1M9 8h1m-3 2h1m-3 2h1"/>
    </g>
  </g>
</svg>